<svg width="15" height="12" viewBox="0 0 15 12" fill="none" xmlns="http://www.w3.org/2000/svg">
<path fill-rule="evenodd" clip-rule="evenodd" d="M7.66286 3.18903L7.69314 3.70031L7.18844 3.6377C5.35131 3.39772 3.74636 2.58384 2.38366 1.21695L1.71745 0.538718L1.54585 1.03956C1.18246 2.15603 1.41462 3.33511 2.17168 4.12812C2.57544 4.56636 2.4846 4.62896 1.78811 4.36811C1.54585 4.28463 1.33387 4.22202 1.31368 4.25333C1.24303 4.32637 1.48528 5.27589 1.67707 5.65152C1.93952 6.17324 2.4745 6.68452 3.05996 6.98711L3.55457 7.2271L2.96911 7.23754C2.40384 7.23754 2.38366 7.24797 2.44422 7.46709C2.6461 8.14532 3.44353 8.86529 4.33181 9.17832L4.95765 9.39744L4.41257 9.73133C3.60504 10.2113 2.6562 10.4826 1.70735 10.5035C1.25312 10.5139 0.879639 10.5556 0.879639 10.5869C0.879639 10.6913 2.11112 11.2756 2.8278 11.5052C4.97783 12.1834 7.53163 11.8912 9.44951 10.733C10.8122 9.90872 12.1749 8.27053 12.8108 6.68452C13.154 5.83934 13.4972 4.29507 13.4972 3.55423C13.4972 3.07425 13.5275 3.01165 14.0928 2.43776C14.4259 2.10386 14.7388 1.73866 14.7994 1.63432C14.9003 1.43607 14.8902 1.43607 14.3754 1.61345C13.5174 1.92648 13.3963 1.88474 13.8202 1.4152C14.1332 1.0813 14.5066 0.476112 14.5066 0.298729C14.5066 0.267426 14.3552 0.319597 14.1836 0.413507C14.0019 0.517849 13.5982 0.674363 13.2954 0.768271L12.7503 0.945656L12.2557 0.601324C11.9831 0.413507 11.5995 0.204821 11.3977 0.142215C10.8829 -0.00386524 10.0955 0.0170031 9.6312 0.183952C8.36944 0.653496 7.57201 1.86387 7.66286 3.18903Z" fill="white"/>
</svg>