<svg width="31" height="30" viewBox="0 0 31 30" fill="none" xmlns="http://www.w3.org/2000/svg">
<path fill-rule="evenodd" clip-rule="evenodd" d="M5.98364 0L8.11969 2.15039C8.11969 2.15039 5.64548 3.86719 4.22903 6.94336C2.81258 10.0195 3.02017 12.0059 3.02017 12.0059L0.015625 12.0176C0.015625 12.0176 0.138858 10.1016 0.422735 8.91797C0.706612 7.73438 1.22669 6.31641 1.5179 5.6543C1.87503 4.84232 2.9813 3.10547 3.38034 2.57812C4.32498 1.32976 5.98364 0 5.98364 0ZM24.0535 0L21.9116 2.15625C21.9116 2.15625 24.6051 4.14844 25.8257 7.06055C27.0463 9.97266 27.0052 12.0117 27.0052 12.0117H30.0156C30.0156 12.0117 29.9276 10.207 29.5638 8.80664C29.1999 7.40625 28.9769 6.73242 28.4488 5.58984C28.2101 5.07336 27.6918 3.97266 26.6648 2.625C25.7379 1.40859 24.0535 0 24.0535 0ZM12.0338 0.0205078L12.0573 3.30176C7.22185 4.16895 6.04819 9.65332 6.00125 11.5986V21.0205L2.9967 22.4502L3.02017 25.5205H27.0566L27.08 22.5205L24.0285 20.9502C24.0285 20.8235 24.0352 20.6128 24.0448 20.3094V20.3094C24.0813 19.153 24.1604 16.6503 24.0755 12.3252C23.9346 5.15332 19.733 3.67676 18.0194 3.30176V0.0205078H12.0338ZM12.034 26.9941L12.0339 27.0176C12.0222 28.4824 13.2369 29.9707 15.0501 30C16.7402 30 18.0547 28.6406 18.043 27.0234L18.0427 26.9941H12.034Z" fill="#111010"/>
</svg>
